# xmcd
#
# Track frame offsets: 
#        150
#        16512
#        29730
#        43857
#        64977
#        82094
#        99975
#        122201
#        134867
#        150881
#        167128
#        184813
#
# Disc length: 2681 seconds
#
# Revision: 0
# Processed by: cddbd v1.5.2PL0 Copyright (c) Steve Scherf et al.
# Submitted via: ExactAudioCopy v1.0b1
#
DISCID=a20a770c
DTITLE=Madjo - Trapdoor
DYEAR=2010
DGENRE=Country
TTITLE0=Leaving my heart
TTITLE1=Le nid des 100 soucis
TTITLE2=Heading for trouble
TTITLE3=Mad mind
TTITLE4=Je claque des doigts
TTITLE5=Another day
TTITLE6=Le coeur hibou
TTITLE7=Trapdoor in a wall
TTITLE8=Catch the bird
TTITLE9=Cracheur de feu
TTITLE10=Lion monkey husband
TTITLE11=Insomnia
EXTD=
EXTT0=
EXTT1=
EXTT2=
EXTT3=
EXTT4=
EXTT5=
EXTT6=
EXTT7=
EXTT8=
EXTT9=
EXTT10=
EXTT11=
PLAYORDER=
